D:\school\WTK\thesis\model\3dpredictsim\Results\Batchsim_tmt_linear\Pog_s1_tmt_bCst_d02_k250_ig24_pas_GRF.mot
nRows=22
nColumns=19

name D:\school\WTK\thesis\model\3dpredictsim\Results\Batchsim_tmt_linear\Pog_s1_tmt_bCst_d02_k250_ig24_pas_GRF.mot
datacolumns 19
datarows 22
range 0.0000000000 0.2358444482
endheader
time 	ground_force_vx	ground_force_vy	ground_force_vz	ground_force_px	ground_force_py	ground_force_pz	1_ground_force_vx	1_ground_force_vy	1_ground_force_vz	1_ground_force_px	1_ground_force_py	1_ground_force_pz	ground_torque_x	ground_torque_y	ground_torque_z	1_ground_torque_x	1_ground_torque_y	1_ground_torque_z
        0.0000000000	      -78.8570651685	       87.5892231992	       57.0636773394	        0.1691391304	        0.0000000000	        0.0354934596	       87.3082784260	      420.0439236627	       -7.3698813443	       -0.3283032596	        0.0000000000	       -0.0290504025	        0.0000000000	        0.0000000000	        0.0000000000	        0.0000000000	        0.0000000000	        0.0000000000	
        0.0112306880	      -78.3911172637	      191.0305630169	       92.4654725095	        0.1741066002	        0.0000000000	        0.0330748323	       65.5055631795	      330.4401199833	      -13.2881693113	       -0.3226627242	        0.0000000000	       -0.0271720047	        0.0000000000	        0.0000000000	        0.0000000000	        0.0000000000	        0.0000000000	        0.0000000000	
        0.0224613760	      -51.2368577253	      366.5537664530	       22.2989972788	        0.1779781538	        0.0000000000	        0.0309492517	       36.6276467769	      223.6696184969	       -9.9715170376	       -0.3114436591	        0.0000000000	       -0.0222030433	        0.0000000000	        0.0000000000	        0.0000000000	        0.0000000000	        0.0000000000	        0.0000000000	
        0.0336920640	      -63.0600504501	      578.7485481891	       -2.6385819555	        0.1844421827	        0.0000000000	        0.0321841628	       17.5174539380	      148.4668539712	       -9.5502620357	       -0.2946935999	        0.0000000000	       -0.0134723511	        0.0000000000	        0.0000000000	        0.0000000000	        0.0000000000	        0.0000000000	        0.0000000000	
        0.0449227520	      -98.7811736211	      776.2317247583	      -11.3513688697	        0.1925622799	        0.0000000000	        0.0345445666	        2.2865566963	      120.3255430316	      -11.7093567516	       -0.2934058099	        0.0000000000	       -0.0126346971	        0.0000000000	        0.0000000000	        0.0000000000	        0.0000000000	        0.0000000000	        0.0000000000	
        0.0561534401	     -119.4885221723	      880.0849286538	      -13.3480203030	        0.1977765337	        0.0000000000	        0.0359602868	       -2.2617845662	       79.3363652000	      -10.2573312114	       -0.2929467267	        0.0000000000	       -0.0126427081	        0.0000000000	        0.0000000000	        0.0000000000	        0.0000000000	        0.0000000000	        0.0000000000	
        0.0673841281	     -122.0029169812	      899.7520149718	      -14.0769212125	        0.2013674082	        0.0000000000	        0.0367636686	       -7.2558209689	       32.7757857418	       -5.9833210899	       -0.2929793768	        0.0000000000	       -0.0125898181	        0.0000000000	        0.0000000000	        0.0000000000	        0.0000000000	        0.0000000000	        0.0000000000	
        0.0786148161	     -113.8092524862	      879.2628084763	      -14.0743013072	        0.2043849187	        0.0000000000	        0.0371932705	        0.0419378405	       -0.0415262086	        0.0008248401	        0.0000000000	        0.0000000000	        0.0000000000	        0.0000000000	        0.0000000000	        0.0000000000	        0.0000000000	        0.0000000000	        0.0000000000	
        0.0898455041	     -101.0920952993	      841.9899130203	      -14.8623190674	        0.2075669823	        0.0000000000	        0.0373667964	        0.0000093241	       -0.0000075319	       -0.0000006203	        0.0000000000	        0.0000000000	        0.0000000000	        0.0000000000	        0.0000000000	        0.0000000000	        0.0000000000	        0.0000000000	        0.0000000000	
        0.1010761921	      -87.3505370246	      795.6348333335	      -14.7836877664	        0.2108300872	        0.0000000000	        0.0374322302	        0.0000088150	       -0.0000062852	       -0.0000007005	        0.0000000000	        0.0000000000	        0.0000000000	        0.0000000000	        0.0000000000	        0.0000000000	        0.0000000000	        0.0000000000	        0.0000000000	
        0.1123068801	      -75.4722737152	      753.5346745860	      -14.8874229434	        0.2146640877	        0.0000000000	        0.0373965916	        0.0001395265	       -0.0000892697	       -0.0000122140	        0.0000000000	        0.0000000000	        0.0000000000	        0.0000000000	        0.0000000000	        0.0000000000	        0.0000000000	        0.0000000000	        0.0000000000	
        0.1235375681	      -65.0524851950	      717.9206283227	      -15.2311673597	        0.2189297676	        0.0000000000	        0.0372700985	        0.0034832380	       -0.0020445309	       -0.0003217855	        0.0000000000	        0.0000000000	        0.0000000000	        0.0000000000	        0.0000000000	        0.0000000000	        0.0000000000	        0.0000000000	        0.0000000000	
        0.1347682561	      -54.9273664104	      685.5636808105	      -15.9455702194	        0.2231670425	        0.0000000000	        0.0371549079	       -0.0162728756	        0.0088946136	        0.0015641792	        0.0000000000	        0.0000000000	        0.0000000000	        0.0000000000	        0.0000000000	        0.0000000000	        0.0000000000	        0.0000000000	        0.0000000000	
        0.1459989441	      -45.5460719029	      656.7272924719	      -16.9706875491	        0.2274114581	        0.0000000000	        0.0370877612	       -0.0113297714	        0.0058264058	        0.0011345905	        0.0000000000	        0.0000000000	        0.0000000000	        0.0000000000	        0.0000000000	        0.0000000000	        0.0000000000	        0.0000000000	        0.0000000000	
        0.1572296322	      -37.8714904904	      632.6034689678	      -17.9643154518	        0.2318000784	        0.0000000000	        0.0370594666	       -0.0078967442	        0.0038549488	        0.0008229969	        0.0000000000	        0.0000000000	        0.0000000000	        0.0000000000	        0.0000000000	        0.0000000000	        0.0000000000	        0.0000000000	        0.0000000000	
        0.1684603202	      -31.5511053988	      613.5442066519	      -18.8332883042	        0.2362600442	        0.0000000000	        0.0370542707	       -0.0072056332	        0.0033632974	        0.0007791907	        0.0000000000	        0.0000000000	        0.0000000000	        0.0000000000	        0.0000000000	        0.0000000000	        0.0000000000	        0.0000000000	        0.0000000000	
        0.1796910082	      -26.1981879720	      599.2386417531	      -19.4414274615	        0.2409367253	        0.0000000000	        0.0370548409	       -0.0089262740	        0.0040068463	        0.0009963266	        0.0000000000	        0.0000000000	        0.0000000000	        0.0000000000	        0.0000000000	        0.0000000000	        0.0000000000	        0.0000000000	        0.0000000000	
        0.1909216962	      -22.1174478900	      589.5734222054	      -19.7115825379	        0.2459758952	        0.0000000000	        0.0370323182	       -0.0144232342	        0.0062576199	        0.0016514938	        0.0000000000	        0.0000000000	        0.0000000000	        0.0000000000	        0.0000000000	        0.0000000000	        0.0000000000	        0.0000000000	        0.0000000000	
        0.2021523842	      -19.6753724251	      584.3406126428	      -19.7824198280	        0.2513987537	        0.0000000000	        0.0369590721	       -0.0282632246	        0.0119059681	        0.0032980596	        0.0000000000	        0.0000000000	        0.0000000000	        0.0000000000	        0.0000000000	        0.0000000000	        0.0000000000	        0.0000000000	        0.0000000000	
        0.2133830722	      -18.0841856563	      582.3657095782	      -19.4829511535	        0.2570812292	        0.0000000000	        0.0368292300	       -0.0616352040	        0.0253126015	        0.0072810705	        0.0000000000	        0.0000000000	        0.0000000000	        0.0000000000	        0.0000000000	        0.0000000000	        0.0000000000	        0.0000000000	        0.0000000000	
        0.2246137602	      -16.7287494050	      582.1519738673	      -18.6638591551	        0.2628984106	        0.0000000000	        0.0366508041	       -0.1374992896	        0.0552540622	        0.0162905857	        0.0000000000	        0.0000000000	        0.0000000000	        0.0000000000	        0.0000000000	        0.0000000000	        0.0000000000	        0.0000000000	        0.0000000000	
        0.2358444482	      -15.1777168594	      582.6216547730	      -17.6896620968	        0.2687884508	        0.0000000000	        0.0364291243	       -0.2901276733	        0.1144877900	        0.0341220148	        0.0000000000	        0.0000000000	        0.0000000000	        0.0000000000	        0.0000000000	        0.0000000000	        0.0000000000	        0.0000000000	        0.0000000000	
